<svg width="18" height="18" viewBox="0 0 18 18" fill="none" xmlns="http://www.w3.org/2000/svg">
<g clip-path="url(#clip0_435_8779)">
<path d="M8.99922 9.79929L5.41255 6.21279C5.2758 6.07573 5.09904 6 4.91588 6C4.73274 6 4.55597 6.07573 4.41922 6.21279C4.12589 6.50529 4.12589 6.96054 4.41922 7.25379L8.50255 11.3368C8.63455 11.4688 8.83588 11.5498 8.99922 11.5498C9.19988 11.5498 9.34988 11.483 9.49588 11.3368L13.5792 7.25379C13.7292 7.10379 13.7992 6.94629 13.7992 6.73329C13.7992 6.52029 13.7292 6.36204 13.5792 6.21279C13.4425 6.07573 13.2657 6 13.0826 6C12.8994 6 12.7226 6.07573 12.5859 6.21279L8.99922 9.79929Z" fill="#212426"/>
</g>
<defs>
<clipPath id="clip0_435_8779">
<rect width="10" height="6" fill="white" transform="translate(4 6)"/>
</clipPath>
</defs>
</svg>
