<svg width="18" height="19" viewBox="0 0 18 19" fill="none" xmlns="http://www.w3.org/2000/svg">
<path d="M7.41957 17.9993C8.28987 17.9993 8.99538 17.2938 8.99538 16.4235C8.99538 15.5532 8.28987 14.8477 7.41957 14.8477C6.54927 14.8477 5.84375 15.5532 5.84375 16.4235C5.84375 17.2938 6.54927 17.9993 7.41957 17.9993Z" stroke="black"/>
<path d="M14.775 17.9993C15.6453 17.9993 16.3509 17.2938 16.3509 16.4235C16.3509 15.5532 15.6453 14.8477 14.775 14.8477C13.9047 14.8477 13.1992 15.5532 13.1992 16.4235C13.1992 17.2938 13.9047 17.9993 14.775 17.9993Z" stroke="black"/>
<path d="M0.59375 0.666016H2.69484L6.37595 12.222H14.7761" stroke="black" stroke-linecap="round" stroke-linejoin="round"/>
<path d="M5.5564 9.59624L3.53516 3.29297H16.6743C16.7576 3.29287 16.8397 3.31256 16.9139 3.35044C16.988 3.38831 17.0521 3.44327 17.1009 3.51079C17.1496 3.57831 17.1816 3.65645 17.1942 3.73877C17.2068 3.82109 17.1996 3.90522 17.1733 3.98423L15.4221 9.23695C15.3872 9.3415 15.3204 9.43245 15.2311 9.49693C15.1417 9.56141 15.0343 9.59615 14.9241 9.59624H5.5564Z" stroke="black" stroke-linecap="round" stroke-linejoin="round"/>
</svg>
