<svg width="30" height="31" viewBox="0 0 30 31" fill="none" xmlns="http://www.w3.org/2000/svg">
<path d="M12.4022 30.1721C13.8795 30.1721 15.0771 28.9745 15.0771 27.4972C15.0771 26.0199 13.8795 24.8223 12.4022 24.8223C10.9249 24.8223 9.72729 26.0199 9.72729 27.4972C9.72729 28.9745 10.9249 30.1721 12.4022 30.1721Z" stroke="#575757"/>
<path d="M24.8863 30.1721C26.3636 30.1721 27.5612 28.9745 27.5612 27.4972C27.5612 26.0199 26.3636 24.8223 24.8863 24.8223C23.409 24.8223 22.2114 26.0199 22.2114 27.4972C22.2114 28.9745 23.409 30.1721 24.8863 30.1721Z" stroke="#575757"/>
<path d="M0.811768 0.74707H4.3783L10.6269 20.363H24.8859" stroke="#575757" stroke-linecap="round" stroke-linejoin="round"/>
<path d="M9.23496 15.9066L5.80396 5.20703H28.1073C28.2486 5.20686 28.388 5.24029 28.5139 5.30458C28.6398 5.36887 28.7486 5.46217 28.8313 5.57678C28.9141 5.6914 28.9684 5.82404 28.9898 5.96377C29.0111 6.1035 28.999 6.24631 28.9543 6.38042L25.9816 15.2968C25.9225 15.4742 25.8091 15.6286 25.6574 15.7381C25.5057 15.8475 25.3234 15.9065 25.1364 15.9066H9.23496Z" stroke="#575757" stroke-linecap="round" stroke-linejoin="round"/>
</svg>
