<svg width="38" height="38" viewBox="0 0 38 38" fill="none" xmlns="http://www.w3.org/2000/svg">
<rect x="0.5" y="0.5" width="37" height="37" stroke="#BBBBBB"/>
<path d="M23.7489 13.5723C23.3738 13.5723 23.0703 13.8757 23.0703 14.2508C23.0703 14.6259 23.3738 14.9294 23.7489 14.9294C24.124 14.9294 24.4275 14.6259 24.4275 14.2508C24.4275 13.8757 24.124 13.5723 23.7489 13.5723Z" fill="#BBBBBB"/>
<path d="M19.0011 14.9277C16.7552 14.9277 14.9297 16.7533 14.9297 18.9992C14.9297 21.2451 16.7552 23.0706 19.0011 23.0706C21.247 23.0706 23.0725 21.2451 23.0725 18.9992C23.0725 16.7533 21.247 14.9277 19.0011 14.9277ZM19.0011 21.6054C17.5659 21.6054 16.3949 20.4344 16.3949 18.9992C16.3949 17.564 17.5659 16.393 19.0011 16.393C20.4363 16.393 21.6073 17.564 21.6073 18.9992C21.6073 20.4344 20.4363 21.6054 19.0011 21.6054Z" fill="#BBBBBB"/>
<path d="M22.7924 28.5H15.2076C12.0605 28.5 9.5 25.9395 9.5 22.7924V15.2076C9.5 12.0605 12.0605 9.5 15.2076 9.5H22.7924C25.9395 9.5 28.5 12.0605 28.5 15.2076V22.7924C28.5 25.9395 25.9395 28.5 22.7924 28.5ZM15.2076 11.2875C13.0474 11.2875 11.2875 13.0474 11.2875 15.2076V22.7924C11.2875 24.9526 13.0474 26.7125 15.2076 26.7125H22.7924C24.9526 26.7125 26.7125 24.9526 26.7125 22.7924V15.2076C26.7125 13.0474 24.9526 11.2875 22.7924 11.2875H15.2076Z" fill="#BBBBBB"/>
</svg>
