<svg width="28" height="28" viewBox="0 0 28 28" fill="none" xmlns="http://www.w3.org/2000/svg">
<rect x="0.5" y="0.5" width="27" height="27" stroke="#BBBBBB"/>
<path d="M17.5 10C17.2236 10 17 10.2236 17 10.5C17 10.7764 17.2236 11 17.5 11C17.7764 11 18 10.7764 18 10.5C18 10.2236 17.7764 10 17.5 10Z" fill="#BBBBBB"/>
<path d="M14 11C12.3451 11 11 12.3451 11 14C11 15.6549 12.3451 17 14 17C15.6549 17 17 15.6549 17 14C17 12.3451 15.6549 11 14 11ZM14 15.9204C12.9425 15.9204 12.0796 15.0575 12.0796 14C12.0796 12.9425 12.9425 12.0796 14 12.0796C15.0575 12.0796 15.9204 12.9425 15.9204 14C15.9204 15.0575 15.0575 15.9204 14 15.9204Z" fill="#BBBBBB"/>
<path d="M16.7944 21H11.2056C8.88667 21 7 19.1133 7 16.7944V11.2056C7 8.88667 8.88667 7 11.2056 7H16.7944C19.1133 7 21 8.88667 21 11.2056V16.7944C21 19.1133 19.1133 21 16.7944 21ZM11.2056 8.31711C9.61388 8.31711 8.31711 9.61388 8.31711 11.2056V16.7944C8.31711 18.3861 9.61388 19.6829 11.2056 19.6829H16.7944C18.3861 19.6829 19.6829 18.3861 19.6829 16.7944V11.2056C19.6829 9.61388 18.3861 8.31711 16.7944 8.31711H11.2056Z" fill="#BBBBBB"/>
</svg>
