<svg width="28" height="28" viewBox="0 0 28 28" fill="none" xmlns="http://www.w3.org/2000/svg">
<path d="M17.5843 18.5464L19.4679 16.662C19.7216 16.4113 20.0426 16.2398 20.3919 16.1681C20.7412 16.0964 21.1038 16.1277 21.4357 16.2582L23.7314 17.1752C24.0667 17.3114 24.3543 17.5438 24.5578 17.8432C24.7613 18.1426 24.8717 18.4956 24.875 18.8577V23.064C24.873 23.3103 24.8213 23.5536 24.7229 23.7794C24.6244 24.0051 24.4813 24.2086 24.3022 24.3776C24.1231 24.5466 23.9116 24.6776 23.6805 24.7627C23.4495 24.8477 23.2036 24.8851 22.9577 24.8727C6.871 23.8716 3.62507 10.2432 3.0112 5.02746C2.9827 4.77133 3.00874 4.51206 3.08759 4.26672C3.16645 4.02138 3.29634 3.79552 3.46871 3.604C3.64109 3.41248 3.85204 3.25965 4.0877 3.15555C4.32336 3.05145 4.57838 2.99845 4.83599 3.00003H8.89761C9.26005 3.00111 9.61388 3.11063 9.9136 3.31452C10.2133 3.51841 10.4452 3.80734 10.5794 4.14414L11.496 6.44077C11.6308 6.77144 11.6652 7.1345 11.5949 7.4846C11.5246 7.83471 11.3527 8.15633 11.1008 8.4093L9.21715 10.2937C9.21715 10.2937 10.3019 17.6379 17.5843 18.5464Z" fill="white"/>
</svg>
