<svg width="28" height="28" viewBox="0 0 28 28" fill="none" xmlns="http://www.w3.org/2000/svg">
<path d="M1.75 25.375C1.75 26.8242 2.92578 28 4.375 28H23.625C25.0742 28 26.25 26.8242 26.25 25.375V10.5H1.75V25.375ZM19.25 14.6562C19.25 14.2953 19.5453 14 19.9062 14H22.0938C22.4547 14 22.75 14.2953 22.75 14.6562V16.8438C22.75 17.2047 22.4547 17.5 22.0938 17.5H19.9062C19.5453 17.5 19.25 17.2047 19.25 16.8438V14.6562ZM19.25 21.6562C19.25 21.2953 19.5453 21 19.9062 21H22.0938C22.4547 21 22.75 21.2953 22.75 21.6562V23.8438C22.75 24.2047 22.4547 24.5 22.0938 24.5H19.9062C19.5453 24.5 19.25 24.2047 19.25 23.8438V21.6562ZM12.25 14.6562C12.25 14.2953 12.5453 14 12.9062 14H15.0938C15.4547 14 15.75 14.2953 15.75 14.6562V16.8438C15.75 17.2047 15.4547 17.5 15.0938 17.5H12.9062C12.5453 17.5 12.25 17.2047 12.25 16.8438V14.6562ZM12.25 21.6562C12.25 21.2953 12.5453 21 12.9062 21H15.0938C15.4547 21 15.75 21.2953 15.75 21.6562V23.8438C15.75 24.2047 15.4547 24.5 15.0938 24.5H12.9062C12.5453 24.5 12.25 24.2047 12.25 23.8438V21.6562ZM5.25 14.6562C5.25 14.2953 5.54531 14 5.90625 14H8.09375C8.45469 14 8.75 14.2953 8.75 14.6562V16.8438C8.75 17.2047 8.45469 17.5 8.09375 17.5H5.90625C5.54531 17.5 5.25 17.2047 5.25 16.8438V14.6562ZM5.25 21.6562C5.25 21.2953 5.54531 21 5.90625 21H8.09375C8.45469 21 8.75 21.2953 8.75 21.6562V23.8438C8.75 24.2047 8.45469 24.5 8.09375 24.5H5.90625C5.54531 24.5 5.25 24.2047 5.25 23.8438V21.6562ZM23.625 3.5H21V0.875C21 0.39375 20.6063 0 20.125 0H18.375C17.8937 0 17.5 0.39375 17.5 0.875V3.5H10.5V0.875C10.5 0.39375 10.1062 0 9.625 0H7.875C7.39375 0 7 0.39375 7 0.875V3.5H4.375C2.92578 3.5 1.75 4.67578 1.75 6.125V8.75H26.25V6.125C26.25 4.67578 25.0742 3.5 23.625 3.5Z" fill="white"/>
</svg>
