<svg width="28" height="28" viewBox="0 0 28 28" fill="none" xmlns="http://www.w3.org/2000/svg">
<rect x="0.5" y="0.5" width="27" height="27" stroke="#BBBBBB"/>
<path d="M7.74049 13.3552C7.74049 13.3552 13.048 11.1616 14.8851 10.3888C15.592 10.0789 17.9842 9.08876 17.9842 9.08876C17.9842 9.08876 19.0864 8.65407 18.9946 9.7086C18.9626 10.1433 18.719 11.6567 18.4714 13.2948C18.104 15.6131 17.7046 18.1488 17.7046 18.1488C17.7046 18.1488 17.6447 18.8612 17.1215 18.982C16.5984 19.1067 15.7397 18.5473 15.588 18.4265C15.4642 18.334 13.2877 16.9413 12.4889 16.2611C12.2733 16.076 12.0297 15.7057 12.5209 15.271C13.6231 14.2527 14.945 12.9849 15.7397 12.1799C16.1072 11.8096 16.4746 10.9442 14.941 11.9947C12.7645 13.5081 10.6159 14.9329 10.6159 14.9329C10.6159 14.9329 10.1247 15.2428 9.20615 14.9651C8.28761 14.6874 7.21332 14.3171 7.21332 14.3171C7.21332 14.3171 6.47849 13.8542 7.73649 13.3592L7.74049 13.3552Z" fill="#BBBBBB"/>
</svg>
