<svg width="38" height="38" viewBox="0 0 38 38" fill="none" xmlns="http://www.w3.org/2000/svg">
<rect x="0.5" y="0.5" width="37" height="37" stroke="#BBBBBB"/>
<path d="M15.2967 13.4611C15.1031 13.4327 14.9057 13.4717 14.7373 13.5715H14.7228C14.3321 13.8007 13.9801 14.0892 13.6801 14.4288C13.4301 14.7173 13.2946 15.009 13.2592 15.2902C13.2384 15.4569 13.253 15.6257 13.3019 15.785L13.3207 15.7954C13.6019 16.6215 13.9686 17.4163 14.4165 18.1642C14.9943 19.2145 15.705 20.1861 16.5311 21.0548L16.5561 21.0902L16.5957 21.1194L16.6196 21.1475L16.6488 21.1725C17.5207 22.001 18.4945 22.7151 19.5467 23.2975C20.7498 23.9527 21.4801 24.2621 21.9186 24.3913V24.3975C22.0467 24.4371 22.1634 24.4548 22.2811 24.4548C22.6548 24.428 23.0085 24.2761 23.2853 24.0236C23.6238 23.7236 23.9103 23.3704 24.1332 22.9777V22.9704C24.3426 22.5746 24.2717 22.2017 23.9696 21.9486C23.3634 21.4178 22.7072 20.9468 22.0103 20.5423C21.5436 20.2892 21.0696 20.4423 20.878 20.6986L20.4686 21.2152C20.2582 21.4715 19.8769 21.4361 19.8769 21.4361L19.8665 21.4423C17.0217 20.7163 16.2623 17.8361 16.2623 17.8361C16.2623 17.8361 16.2269 17.4444 16.4905 17.2444L17.003 16.8319C17.2488 16.6319 17.4196 16.159 17.1561 15.6923C16.7525 14.9959 16.2826 14.3401 15.753 13.734C15.6371 13.5917 15.4748 13.4947 15.2946 13.46M20.104 12.209C19.9659 12.209 19.8334 12.2639 19.7357 12.3615C19.638 12.4592 19.5832 12.5917 19.5832 12.7298C19.5832 12.868 19.638 13.0004 19.7357 13.0981C19.8334 13.1958 19.9659 13.2507 20.104 13.2507C21.4207 13.2507 22.5144 13.6809 23.3801 14.5059C23.8248 14.9569 24.1717 15.4913 24.3988 16.0767C24.6269 16.6632 24.7311 17.2892 24.704 17.9163C24.6982 18.0544 24.7475 18.1892 24.8411 18.291C24.9347 18.3927 25.0648 18.4532 25.203 18.459C25.3411 18.4648 25.4759 18.4155 25.5777 18.3219C25.6794 18.2283 25.7399 18.0982 25.7457 17.96C25.7768 17.1887 25.6488 16.4193 25.3696 15.6996C25.0892 14.9763 24.6622 14.3187 24.1155 13.7684L24.1051 13.7579C23.0311 12.7319 21.6728 12.209 20.104 12.209Z" fill="#BBBBBB"/>
<path d="M20.0677 13.921C19.9296 13.921 19.7971 13.9758 19.6994 14.0735C19.6017 14.1712 19.5469 14.3037 19.5469 14.4418C19.5469 14.5799 19.6017 14.7124 19.6994 14.8101C19.7971 14.9078 19.9296 14.9626 20.0677 14.9626H20.0854C21.0354 15.0303 21.7271 15.347 22.2115 15.8668C22.7083 16.4022 22.9656 17.0678 22.9458 17.8908C22.9427 18.0289 22.9945 18.1626 23.0899 18.2625C23.1853 18.3625 23.3166 18.4204 23.4547 18.4236C23.5928 18.4267 23.7266 18.3749 23.8265 18.2795C23.9264 18.1841 23.9843 18.0528 23.9875 17.9147C24.0125 16.8345 23.6646 15.9022 22.975 15.1585V15.1564C22.2698 14.4001 21.3021 14.0001 20.1375 13.922L20.1198 13.9199L20.0677 13.921Z" fill="#BBBBBB"/>
<path d="M20.0471 15.6661C19.9774 15.6599 19.9072 15.6679 19.8406 15.6895C19.774 15.7111 19.7125 15.7458 19.6597 15.7917C19.6069 15.8376 19.5638 15.8937 19.5332 15.9566C19.5025 16.0195 19.4848 16.0879 19.4812 16.1578C19.4775 16.2277 19.488 16.2976 19.512 16.3633C19.5359 16.429 19.5729 16.4893 19.6207 16.5404C19.6684 16.5916 19.726 16.6325 19.79 16.6609C19.8539 16.6893 19.923 16.7045 19.9929 16.7057C20.4283 16.7286 20.7065 16.8598 20.8815 17.0359C21.0575 17.213 21.1887 17.4973 21.2127 17.9421C21.214 18.012 21.2294 18.0809 21.2579 18.1448C21.2864 18.2086 21.3274 18.266 21.3786 18.3137C21.4298 18.3613 21.49 18.3981 21.5557 18.422C21.6214 18.4459 21.6913 18.4562 21.7611 18.4525C21.8309 18.4488 21.8992 18.4311 21.962 18.4004C22.0249 18.3697 22.0809 18.3267 22.1267 18.2739C22.1725 18.2212 22.2073 18.1597 22.2288 18.0932C22.2504 18.0267 22.2584 17.9566 22.2523 17.8869C22.219 17.2619 22.0231 16.7098 21.6221 16.3036C21.219 15.8973 20.67 15.6994 20.0471 15.6661Z" fill="#BBBBBB"/>
<path fill-rule="evenodd" clip-rule="evenodd" d="M14.3618 9.48148C17.6765 8.74055 21.1138 8.74055 24.4285 9.48148L24.7816 9.55961C25.7503 9.77677 26.64 10.258 27.3519 10.9499C28.0638 11.6417 28.5702 12.5173 28.8149 13.4794C29.6571 16.7948 29.6571 20.2682 28.8149 23.5836C28.5702 24.5457 28.0638 25.4212 27.3519 26.1131C26.64 26.805 25.7503 27.2862 24.7816 27.5034L24.4274 27.5815C22.3513 28.0451 20.2212 28.22 18.0972 28.1013L15.3337 30.5742C15.2295 30.6675 15.1022 30.7311 14.965 30.7584C14.8279 30.7857 14.6859 30.7756 14.554 30.7293C14.422 30.6831 14.3049 30.6022 14.2148 30.4952C14.1248 30.3882 14.0651 30.259 14.042 30.1211L13.5847 27.3898C12.7081 27.1165 11.9161 26.6232 11.2842 25.9569C10.6524 25.2906 10.2018 24.4735 9.97536 23.5836C9.13321 20.2682 9.13321 16.7948 9.97536 13.4794C10.2201 12.5173 10.7265 11.6417 11.4384 10.9499C12.1504 10.258 13.04 9.77677 14.0087 9.55961L14.3618 9.48148ZM24.0879 11.0054C20.9975 10.3146 17.7928 10.3146 14.7024 11.0054L14.3483 11.0846C13.6618 11.239 13.0314 11.5803 12.5269 12.0708C12.0224 12.5613 11.6635 13.1819 11.4899 13.8638C10.7118 16.9269 10.7118 20.136 11.4899 23.1992C11.6636 23.8812 12.0227 24.5019 12.5273 24.9924C13.032 25.4829 13.6626 25.8242 14.3493 25.9784L14.4431 25.9992C14.5947 26.0331 14.7328 26.1115 14.8397 26.2243C14.9466 26.3371 15.0174 26.4793 15.0431 26.6325L15.3493 28.4638L17.2993 26.719C17.3772 26.6491 17.4683 26.5956 17.5673 26.5616C17.6662 26.5276 17.771 26.5138 17.8754 26.5211C19.9577 26.6681 22.0504 26.5119 24.0879 26.0575L24.441 25.9784C25.1277 25.8242 25.7583 25.4829 26.263 24.9924C26.7677 24.5019 27.1267 23.8812 27.3004 23.1992C28.0774 20.1367 28.0774 16.9273 27.3004 13.8638C27.1267 13.1817 26.7677 12.5611 26.263 12.0706C25.7583 11.58 25.1277 11.2388 24.441 11.0846L24.0879 11.0054Z" fill="#BBBBBB"/>
</svg>
