<svg width="38" height="38" viewBox="0 0 38 38" fill="none" xmlns="http://www.w3.org/2000/svg">
<rect x="0.5" y="0.5" width="37" height="37" stroke="#BBBBBB"/>
<path d="M10.1724 17.9683C10.1724 17.9683 18.5761 14.4585 21.4848 13.2221C22.604 12.7262 26.3916 11.142 26.3916 11.142C26.3916 11.142 28.1368 10.4465 27.9914 12.1338C27.9408 12.8293 27.5551 15.2506 27.163 17.8717C26.5813 21.581 25.949 25.6381 25.949 25.6381C25.949 25.6381 25.8541 26.778 25.0258 26.9712C24.1974 27.1708 22.8379 26.2757 22.5976 26.0825C22.4016 25.9343 18.9554 23.7062 17.6908 22.6178C17.3493 22.3216 16.9636 21.7291 17.7414 21.0336C19.4866 19.4043 21.5796 17.3758 22.8379 16.0878C23.4197 15.4954 24.0014 14.1108 21.5733 15.7916C18.1271 18.213 14.7252 20.4927 14.7252 20.4927C14.7252 20.4927 13.9474 20.9885 12.4931 20.5442C11.0387 20.0998 9.33776 19.5074 9.33776 19.5074C9.33776 19.5074 8.17428 18.7668 10.1661 17.9747L10.1724 17.9683Z" fill="#BBBBBB"/>
</svg>
