<svg width="28" height="28" viewBox="0 0 28 28" fill="none" xmlns="http://www.w3.org/2000/svg">
<rect x="0.5" y="0.5" width="27" height="27" stroke="#BBBBBB"/>
<path d="M10.9736 9.6515C10.8342 9.63109 10.6921 9.65915 10.5709 9.731H10.5604C10.2791 9.896 10.0256 10.1037 9.80964 10.3483C9.62964 10.556 9.53214 10.766 9.50664 10.9685C9.49164 11.0885 9.50214 11.21 9.53739 11.3247L9.55089 11.3322C9.75339 11.927 10.0174 12.4992 10.3399 13.0378C10.7559 13.794 11.2676 14.4935 11.8624 15.119L11.8804 15.1445L11.9089 15.1655L11.9261 15.1858L11.9471 15.2037C12.5749 15.8003 13.276 16.3144 14.0336 16.7338C14.8999 17.2055 15.4256 17.4282 15.7414 17.5212V17.5258C15.8336 17.5542 15.9176 17.567 16.0024 17.567C16.2714 17.5477 16.5261 17.4383 16.7254 17.2565C16.9691 17.0405 17.1754 16.7863 17.3359 16.5035V16.4983C17.4866 16.2133 17.4356 15.9448 17.2181 15.7625C16.7816 15.3803 16.3092 15.0412 15.8074 14.75C15.4714 14.5677 15.1301 14.678 14.9921 14.8625L14.6974 15.2345C14.5459 15.419 14.2714 15.3935 14.2714 15.3935L14.2639 15.398C12.2156 14.8753 11.6689 12.8015 11.6689 12.8015C11.6689 12.8015 11.6434 12.5195 11.8331 12.3755L12.2021 12.0785C12.3791 11.9345 12.5021 11.594 12.3124 11.258C12.0218 10.7566 11.6835 10.2844 11.3021 9.848C11.2187 9.74553 11.1019 9.6757 10.9721 9.65075M14.4349 8.75C14.3354 8.75 14.24 8.78951 14.1697 8.85984C14.0994 8.93016 14.0599 9.02554 14.0599 9.125C14.0599 9.22446 14.0994 9.31984 14.1697 9.39016C14.24 9.46049 14.3354 9.5 14.4349 9.5C15.3829 9.5 16.1704 9.80975 16.7936 10.4037C17.1139 10.7285 17.3636 11.1133 17.5271 11.5348C17.6914 11.957 17.7664 12.4078 17.7469 12.8593C17.7427 12.9587 17.7782 13.0557 17.8456 13.129C17.913 13.2023 18.0067 13.2458 18.1061 13.25C18.2056 13.2542 18.3026 13.2187 18.3759 13.1513C18.4492 13.0839 18.4927 12.9902 18.4969 12.8907C18.5193 12.3354 18.4271 11.7814 18.2261 11.2632C18.0242 10.7424 17.7168 10.269 17.3231 9.87275L17.3156 9.86525C16.5424 9.1265 15.5644 8.75 14.4349 8.75Z" fill="#BBBBBB"/>
<path d="M14.4102 9.98317C14.3107 9.98317 14.2153 10.0227 14.145 10.093C14.0747 10.1633 14.0352 10.2587 14.0352 10.3582C14.0352 10.4576 14.0747 10.553 14.145 10.6233C14.2153 10.6937 14.3107 10.7332 14.4102 10.7332H14.4229C15.1069 10.7819 15.6049 11.0099 15.9537 11.3842C16.3114 11.7697 16.4967 12.2489 16.4824 12.8414C16.4801 12.9409 16.5174 13.0372 16.5861 13.1091C16.6549 13.1811 16.7493 13.2228 16.8488 13.225C16.9482 13.2273 17.0445 13.19 17.1165 13.1213C17.1884 13.0526 17.2301 12.9581 17.2324 12.8587C17.2504 12.0809 16.9999 11.4097 16.5034 10.8742V10.8727C15.9957 10.3282 15.2989 10.0402 14.4604 9.98392L14.4477 9.98242L14.4102 9.98317Z" fill="#BBBBBB"/>
<path d="M14.3962 11.2397C14.3461 11.2353 14.2955 11.241 14.2476 11.2566C14.1996 11.2721 14.1554 11.2972 14.1173 11.3302C14.0793 11.3633 14.0483 11.4036 14.0262 11.4489C14.0041 11.4942 13.9914 11.5435 13.9888 11.5938C13.9862 11.6441 13.9937 11.6944 14.011 11.7417C14.0282 11.7891 14.0548 11.8324 14.0892 11.8693C14.1236 11.9061 14.1651 11.9356 14.2111 11.956C14.2572 11.9765 14.3069 11.9874 14.3572 11.9882C14.6707 12.0047 14.871 12.0992 14.997 12.226C15.1237 12.3535 15.2182 12.5582 15.2355 12.8785C15.2364 12.9288 15.2475 12.9784 15.268 13.0244C15.2885 13.0703 15.3181 13.1117 15.3549 13.146C15.3918 13.1803 15.4351 13.2068 15.4825 13.224C15.5298 13.2412 15.5801 13.2487 15.6303 13.246C15.6806 13.2433 15.7298 13.2306 15.775 13.2085C15.8202 13.1864 15.8606 13.1554 15.8936 13.1174C15.9266 13.0794 15.9516 13.0351 15.9671 12.9873C15.9827 12.9394 15.9884 12.8889 15.984 12.8387C15.96 12.3887 15.819 11.9912 15.5302 11.6987C15.24 11.4062 14.8447 11.2637 14.3962 11.2397Z" fill="#BBBBBB"/>
<path fill-rule="evenodd" clip-rule="evenodd" d="M10.3005 6.7878C12.6871 6.25433 15.162 6.25433 17.5485 6.7878L17.8028 6.84405C18.5002 7.00041 19.1408 7.34687 19.6534 7.84503C20.1659 8.34319 20.5306 8.97358 20.7068 9.6663C21.3131 12.0534 21.3131 14.5542 20.7068 16.9413C20.5306 17.634 20.1659 18.2644 19.6534 18.7626C19.1408 19.2607 18.5002 19.6072 17.8028 19.7635L17.5478 19.8198C16.053 20.1536 14.5192 20.2795 12.99 20.194L11.0003 21.9745C10.9252 22.0417 10.8336 22.0875 10.7348 22.1072C10.6361 22.1268 10.5339 22.1196 10.4388 22.0863C10.3438 22.0529 10.2595 21.9947 10.1947 21.9177C10.1298 21.8406 10.0869 21.7476 10.0703 21.6483L9.74101 19.6818C9.10982 19.485 8.53957 19.1298 8.08464 18.6501C7.6297 18.1703 7.30527 17.582 7.14226 16.9413C6.53591 14.5542 6.53591 12.0534 7.14226 9.6663C7.31847 8.97358 7.68308 8.34319 8.19567 7.84503C8.70826 7.34687 9.34879 7.00041 10.0463 6.84405L10.3005 6.7878ZM17.3033 7.88505C15.0782 7.38765 12.7708 7.38765 10.5458 7.88505L10.2908 7.94205C9.79648 8.05319 9.3426 8.29895 8.97937 8.65211C8.61614 9.00528 8.35774 9.45209 8.23276 9.94305C7.67251 12.1485 7.67251 14.4591 8.23276 16.6645C8.35779 17.1556 8.61631 17.6025 8.97968 17.9557C9.34305 18.3088 9.79709 18.5545 10.2915 18.6655L10.359 18.6805C10.4682 18.705 10.5676 18.7614 10.6446 18.8426C10.7215 18.9239 10.7725 19.0262 10.791 19.1365L11.0115 20.455L12.4155 19.1988C12.4716 19.1485 12.5372 19.1099 12.6084 19.0855C12.6797 19.061 12.7551 19.0511 12.8303 19.0563C14.3296 19.1622 15.8363 19.0497 17.3033 18.7225L17.5575 18.6655C18.0519 18.5545 18.506 18.3088 18.8693 17.9557C19.2327 17.6025 19.4912 17.1556 19.6163 16.6645C20.1758 14.4595 20.1758 12.1488 19.6163 9.94305C19.4912 9.45199 19.2327 9.00512 18.8693 8.65194C18.506 8.29877 18.0519 8.05306 17.5575 7.94205L17.3033 7.88505Z" fill="#BBBBBB"/>
</svg>
