<svg width="32" height="26" viewBox="0 0 32 26" fill="none" xmlns="http://www.w3.org/2000/svg">
<path d="M29 8.31733V19.5C29 21.4333 27.3921 23 25.4079 23H6.59211C5.63942 23 4.72575 22.6313 4.0521 21.9749C3.37845 21.3185 3 20.4283 3 19.5V8.31733L15.5881 15.064C15.8447 15.2013 16.156 15.2013 16.4119 15.064L29 8.31667V8.31733ZM25.4079 3C26.3456 3.00008 27.2461 3.35744 27.917 3.99572C28.5879 4.634 28.9761 5.50261 28.9986 6.416L16 13.3827L3.00137 6.41533L3.00274 6.35533C3.04105 5.45284 3.43598 4.59972 4.10494 3.97438C4.77389 3.34905 5.66507 2.99992 6.59211 3H25.4079Z" fill="white"/>
</svg>
