<svg width="28" height="28" viewBox="0 0 28 28" fill="none" xmlns="http://www.w3.org/2000/svg">
<g clip-path="url(#clip0_621_4096)">
<path d="M12.9209 27.4351C4.97492 15.9158 3.5 14.7335 3.5 10.5C3.5 4.70099 8.20099 0 14 0C19.799 0 24.5 4.70099 24.5 10.5C24.5 14.7335 23.0251 15.9158 15.0791 27.4351C14.5576 28.1883 13.4423 28.1883 12.9209 27.4351ZM14 14.875C16.4163 14.875 18.375 12.9163 18.375 10.5C18.375 8.08374 16.4163 6.125 14 6.125C11.5837 6.125 9.625 8.08374 9.625 10.5C9.625 12.9163 11.5837 14.875 14 14.875Z" fill="white"/>
</g>
<defs>
<clipPath id="clip0_621_4096">
<rect width="28" height="28" fill="white"/>
</clipPath>
</defs>
</svg>
